<?xml version="1.0" encoding="utf-8"?>
<!-- Generator: Adobe Illustrator 24.1.1, SVG Export Plug-In . SVG Version: 6.00 Build 0)  -->
<svg version="1.1" id="Capa_1" xmlns="http://www.w3.org/2000/svg" xmlns:xlink="http://www.w3.org/1999/xlink" x="0px" y="0px"
	 viewBox="0 0 1442 800" style="enable-background:new 0 0 1442 800;" xml:space="preserve">
<style type="text/css">
	.st0{enable-background:new    ;}
</style>
<g>
	<path d="M733.3,257.6c2.5-5.1,3.9-10.8,3.9-16.7c0-22.1-19.2-40.2-42.8-40.2s-42.8,18-42.8,40.2c0,6,1.4,11.6,3.9,16.7
		c-92.6,16.1-168.8,91-175.4,185.8h-29v26.8H485l28.5,53.5h360.6l28.5-53.5h34.9v-26.8h-29.9C901.3,350.1,827.4,274.1,733.3,257.6
		L733.3,257.6z M680.2,240.9c0-7.4,6.4-13.4,14.3-13.4s14.3,6,14.3,13.4s-6.4,13.4-14.3,13.4S680.2,248.3,680.2,240.9z M694.4,281
		c97.4,0,177.5,71.7,184.7,162.4H508.8C516,352.7,596.5,281,694.4,281z M856.6,497H531.3L517,470.2h353.9L856.6,497z"/>
	<path d="M779.9,93.7h128.3V66.9H779.9c-23.6,0-42.8,18-42.8,40.2s19.2,40.2,42.8,40.2h57c7.9,0,14.3,6,14.3,13.4
		s-6.4,13.4-14.3,13.4h-28.5c-23.6,0-42.8,18-42.8,40.2v13.4h28.5v-13.4c0-7.4,6.4-13.4,14.3-13.4h28.5c23.6,0,42.8-18,42.8-40.2
		s-19.2-40.2-42.8-40.2h-57c-7.9,0-14.3-6-14.3-13.4C765.7,99.7,772.1,93.7,779.9,93.7z"/>
</g>
<g class="st0">
	<path d="M276.5,656h7.9h1.6c4.6,0,6.9,2.3,6.9,7c0,2.9-0.9,5.4-2.8,7.4c-1.9,2-4.2,3-6.9,3h-1.6h-11l-11.9,35.1
		c-8.3,24.2-20.5,36.3-36.6,36.3c-8.5,0-15.5-3.3-21-9.8c-5.6-6.5-8.3-14.7-8.3-24.6c0-7.7,1.6-15.1,4.9-22.1
		c3.3-7,7.9-13.1,13.8-18.2c5-4.2,10.9-7.6,17.6-10.1s13.3-3.7,19.8-3.7l8.6-0.3l2.7-0.1l11.8-35.4l0.7-2.1c0.9-3,2.1-5,3.6-6
		c1.4-1,3.9-1.5,7.3-1.5h31.4c5.7,0,8.5,2.4,8.5,7.2c0,2.8-0.9,5.3-2.8,7.3c-1.9,2-4.2,3-6.9,3h-1.7h-26.2L276.5,656z M254.1,673.5
		h-3.3c-12.1,0-21.8,3.3-29,9.9c-8.1,7.4-12.1,15.7-12.1,25c0,5,1.3,9.2,3.8,12.5c2.6,3.4,5.7,5.1,9.5,5.1c8.8,0,16.1-8.4,21.8-25.1
		L254.1,673.5z"/>
	<path d="M331.5,653.9c5.9,0,10.8,2.2,14.6,6.7c3.8,4.5,5.7,10.2,5.7,17.1c0,5.2-1,10.4-3,15.6c-2,5.2-4.6,9.3-7.8,12.3
		c-2.1,2-4.3,3.4-6.6,4.1c-2.3,0.8-5.4,1.1-9.5,1.1c-6.7,0-11.2-1-13.5-2.9c-5.5-4.5-8.2-11.1-8.2-19.9c0-9.3,2.8-17.3,8.4-24.1
		C317.2,657.3,323.8,653.9,331.5,653.9z M330,669.5c-3,0-5.8,1.8-8.3,5.3c-2.5,3.6-3.7,7.5-3.7,11.8c0,5.7,2.7,8.5,8,8.5
		c3.1,0,5.5-1.1,7.2-3.4c2.8-3.8,4.2-8.1,4.2-12.9c0-2.8-0.7-5-2-6.7C333.9,670.4,332.2,669.5,330,669.5z"/>
	<path d="M383.4,653.9c5.9,0,10.8,2.2,14.6,6.7c3.8,4.5,5.7,10.2,5.7,17.1c0,5.2-1,10.4-3,15.6c-2,5.2-4.6,9.3-7.8,12.3
		c-2.1,2-4.3,3.4-6.6,4.1c-2.3,0.8-5.4,1.1-9.5,1.1c-6.7,0-11.2-1-13.5-2.9c-5.5-4.5-8.2-11.1-8.2-19.9c0-9.3,2.8-17.3,8.4-24.1
		C369.2,657.3,375.8,653.9,383.4,653.9z M382,669.5c-3,0-5.8,1.8-8.3,5.3c-2.5,3.6-3.7,7.5-3.7,11.8c0,5.7,2.7,8.5,8,8.5
		c3.1,0,5.5-1.1,7.2-3.4c2.8-3.8,4.2-8.1,4.2-12.9c0-2.8-0.7-5-2-6.7C385.9,670.4,384.1,669.5,382,669.5z"/>
	<path d="M449.1,695h7c5.2,0,7.8,2.2,7.8,6.5c0,3-0.9,5.3-2.8,7c-1.8,1.7-4.4,2.5-7.6,2.5h-8.3c-3.2,0-5.5-1.6-7-4.7
		c-2.6,3.1-5.4,4.7-8.4,4.7h-7.8c-4.5,0-8.2-1.9-10.9-5.6c-2.7-3.7-4.1-8.6-4.1-14.8c0-9.4,2.7-17.9,8.1-25.4
		c5.4-7.5,11.4-11.3,18.1-11.3c4.9,0,8.9,2.1,11.8,6.4l13.7-40.1c2.3-6.8,5.6-10.3,9.7-10.3c1.8,0,3.2,0.7,4.5,2s1.8,3,1.8,4.9
		c0,1.5-0.3,3.2-0.9,5.1l-0.7,2L449.1,695z M426.7,695.4h2.3c2.8,0,4.7-1.3,5.6-4l4.6-13.5c0.6-1.7,0.9-2.9,0.9-3.8
		c0-1.5-0.5-2.7-1.6-3.7c-1-1-2.3-1.5-3.9-1.5c-3.2,0-6.2,2.1-8.9,6.4c-2.8,4.2-4.1,8.8-4.1,13.8
		C421.6,693.2,423.3,695.4,426.7,695.4z"/>
	<path d="M483.4,695h6.9c5.1,0,7.7,2.2,7.7,6.5c0,3-0.9,5.3-2.7,7c-1.8,1.7-4.4,2.5-7.6,2.5h-9.7c-3.6,0-6.4-0.9-8.5-2.6
		c-2.1-1.8-3.1-4.1-3.1-7.2c0-1.6,0.4-3.7,1.3-6.2l10.1-29.7l0.7-2.1c1.9-5.5,4.9-8.3,9.1-8.3c1.7,0,3.2,0.7,4.4,2.1
		c1.2,1.4,1.9,3,1.9,4.9c0,1.6-0.6,4-1.7,7.2L483.4,695z M491.5,631.6c2.4,0,4.4,1,6,3c1.7,2,2.5,4.4,2.5,7.2c0,2.8-0.8,5.2-2.5,7.2
		c-1.7,2-3.7,3-6,3c-2.4,0-4.4-1-6-3c-1.7-2-2.5-4.4-2.5-7.2c0-2.8,0.8-5.2,2.5-7.2C487.1,632.6,489.1,631.6,491.5,631.6z"/>
	<path d="M534.2,654.9h8.5c5.2,0,7.8,2.2,7.8,6.5c0,3-0.9,5.3-2.7,7c-1.8,1.7-4.4,2.5-7.6,2.5h-11.3L501.3,752
		c-2.3,6.7-5.5,10-9.6,10c-1.8,0-3.3-0.7-4.5-2s-1.8-3-1.8-4.9c0-1.4,0.5-3.7,1.6-7l26.3-77.3h-4.2c-5.2,0-7.8-2.1-7.8-6.4
		c0-3,0.9-5.4,2.7-7.1c1.8-1.7,4.4-2.5,7.6-2.5h7l7.8-22.9c2.6-7.6,5.8-13,9.4-16.2c3.7-3.2,8.5-4.8,14.7-4.8h7
		c5.2,0,7.8,2.1,7.8,6.4c0,3.1-0.9,5.5-2.8,7.2c-1.8,1.7-4.4,2.6-7.7,2.6h-1.8c-3.4,0-6.1,0.8-8.1,2.5c-2,1.7-3.6,4.5-5,8.4
		L534.2,654.9z"/>
	<path d="M577.5,714h7.1c5.2,0,7.8,2.2,7.8,6.5c0,3-0.9,5.3-2.7,7c-1.8,1.7-4.4,2.5-7.6,2.5h-9.9c-1.2,4.2-3.3,9.8-6.4,16.7
		c-5.4,12.2-13.2,18.3-23.5,18.3c-6.3,0-11.5-2.3-15.7-7c-4.2-4.7-6.4-10.5-6.4-17.4c0-4.8,1.2-9.3,3.5-13.5
		c2.3-4.2,5.3-7.3,9.1-9.4c4.3-2.4,10.7-3.6,19.2-3.6h10l1.8-5.3c-3,1.5-5.8,2.3-8.3,2.3c-4.4,0-7.9-1.3-10.6-4
		c-2.7-2.7-4.1-6.1-4.1-10.4c0-2.6,0.9-6.5,2.6-11.6l6.7-19.7l0.7-2.1c2-5.5,5-8.3,9.1-8.3c1.8,0,3.3,0.7,4.5,2.1
		c1.2,1.4,1.8,3.1,1.8,5.2c0,1.4-0.5,3.7-1.6,6.9l-6,17.5c-0.9,2.8-1.4,4.7-1.5,5.5c-0.1,2.4,1.1,3.6,3.8,3.6c1.9,0,3.8-0.7,5.8-2
		c2-1.3,3.2-2.8,3.7-4.5l8.2-24l0.6-2.1c1.9-5.5,5-8.3,9.1-8.3c1.8,0,3.3,0.7,4.5,2.1c1.2,1.4,1.8,3.1,1.8,5.2
		c0,1.4-0.3,3.1-0.9,4.9l-0.7,2L577.5,714z M557.5,729.9h-8.6c-9.4,0-14.1,3.5-14.1,10.5c0,2.5,0.6,4.5,1.9,6c1.3,1.5,3,2.3,5.2,2.3
		c3,0,5.6-1.4,7.9-4.2C552.2,741.8,554.7,736.9,557.5,729.9z"/>
	<path d="M720.8,673.5h-17l-20.3,42c-9.6,19.9-20.9,29.8-34,29.8c-8,0-14.8-3.5-20.3-10.4c-5.5-6.9-8.2-15.5-8.2-25.7
		c0-8.3,2.1-16.3,6.3-24c4.2-7.7,9.9-14.1,17.2-19.2c5.4-3.7,11.5-6.3,18.1-7.8c6.6-1.5,15.4-2.3,26.4-2.3h4.5l4.8-10.6
		c6.7-14.8,15-24.7,24.7-29.6c6.3-3.2,14.4-4.8,24.5-4.8c2.6,0,4.6,0.7,6.1,2.1c1.5,1.4,2.2,3.3,2.2,5.7c0,1.1-0.2,2.4-0.7,4
		l-0.6,1.7L744.2,656h4.7h1.6c4.6,0,6.9,2.4,6.9,7.1c0,2.9-0.9,5.3-2.8,7.4c-1.9,2-4.2,3-6.9,3h-1.7h-7.7l-6.8,20h10h1.6
		c4.6,0,6.9,2.3,6.9,7c0,2.9-0.9,5.4-2.8,7.4s-4.2,3-6.9,3h-1.7h-13.1c-3.5,0-6.4-1.1-8.6-3.3c-2.2-2.2-3.3-5-3.3-8.5
		c0-2.7,0.8-6.5,2.5-11.4L720.8,673.5z M685.3,673.5h-5.2c-11.7,0-21,2.6-27.8,7.8c-4.4,3.3-7.9,7.5-10.4,12.5
		c-2.6,5-3.9,10-3.9,15.1c0,4.6,1.2,8.6,3.7,11.9c2.5,3.3,5.5,4.9,9.1,4.9c6.2,0,11.6-4.9,16.4-14.6L685.3,673.5z M726.8,656l8.8-26
		c-4.3,0.3-8,2-10.9,4.9c-3,3-6.3,8.3-10.1,16.1l-2.5,5H726.8z"/>
	<path d="M772,705.3l-16,47c-2.2,6.5-5.4,9.7-9.7,9.7c-1.6,0-3-0.6-4.2-1.9c-1.2-1.3-1.7-2.8-1.7-4.7c0-1.5,0.5-3.8,1.5-6.9l29.5-87
		c1.5-4.4,4.1-6.6,7.8-6.6c2.6,0,4.6,1.5,6.1,4.4c2.9-3.6,6.4-5.4,10.5-5.4c4.3,0,7.8,1.9,10.4,5.8c2.6,3.9,4,9,4,15.3
		c0,12-3.1,21.8-9.4,29.4c-2,2.5-4.1,4.2-6.3,5.1c-2.2,0.9-5.2,1.4-9.1,1.4c-4.2,0-7-0.3-8.6-1C775.3,709.3,773.7,707.7,772,705.3z
		 M777.1,690.3c1,2.1,2,3.5,2.9,4.2c0.9,0.6,2.4,1,4.4,1c2.9,0,5.2-1.3,6.8-3.9c3.3-5.2,5-10.6,5-16.1c0-4.7-1.9-7.1-5.6-7.1
		c-4.1,0-7.1,2.9-8.9,8.6c-0.2,0.6-0.4,1.2-0.5,1.6L777.1,690.3z"/>
	<path d="M826.8,705.3l-16,47c-2.2,6.5-5.4,9.7-9.7,9.7c-1.6,0-3-0.6-4.2-1.9c-1.2-1.3-1.7-2.8-1.7-4.7c0-1.5,0.5-3.8,1.5-6.9
		l29.5-87c1.5-4.4,4.1-6.6,7.8-6.6c2.6,0,4.6,1.5,6.1,4.4c2.9-3.6,6.4-5.4,10.5-5.4c4.3,0,7.8,1.9,10.4,5.8c2.6,3.9,4,9,4,15.3
		c0,12-3.1,21.8-9.4,29.4c-2,2.5-4.1,4.2-6.3,5.1c-2.2,0.9-5.2,1.4-9.1,1.4c-4.2,0-7-0.3-8.6-1C830.1,709.3,828.5,707.7,826.8,705.3
		z M831.8,690.3c1,2.1,2,3.5,2.9,4.2c0.9,0.6,2.4,1,4.4,1c2.9,0,5.2-1.3,6.8-3.9c3.3-5.2,5-10.6,5-16.1c0-4.7-1.9-7.1-5.6-7.1
		c-4.1,0-7.1,2.9-8.9,8.6c-0.2,0.6-0.4,1.2-0.5,1.6L831.8,690.3z"/>
	<path d="M884.7,695h6.4c5.2,0,7.8,2.2,7.8,6.5c0,3-0.9,5.3-2.7,7c-1.8,1.7-4.4,2.5-7.6,2.5h-11c-3,0-5.4-0.9-7.2-2.6
		c-1.8-1.7-2.6-4-2.6-6.9c0-1.5,0.6-4,1.8-7.5l24.8-72.8l0.7-2c1.9-5.5,4.9-8.2,9-8.2c1.7,0,3.2,0.7,4.4,2.1c1.2,1.4,1.8,3,1.8,4.9
		c0,1.5-0.3,3.1-0.9,5l-0.7,2L884.7,695z"/>
	<path d="M918.7,695h6.9c5.1,0,7.7,2.2,7.7,6.5c0,3-0.9,5.3-2.7,7c-1.8,1.7-4.4,2.5-7.6,2.5h-9.7c-3.6,0-6.4-0.9-8.5-2.6
		c-2.1-1.8-3.1-4.1-3.1-7.2c0-1.6,0.4-3.7,1.3-6.2l10.1-29.7l0.7-2.1c1.9-5.5,4.9-8.3,9.1-8.3c1.7,0,3.2,0.7,4.4,2.1
		c1.2,1.4,1.9,3,1.9,4.9c0,1.6-0.6,4-1.7,7.2L918.7,695z M926.8,631.6c2.4,0,4.4,1,6,3c1.7,2,2.5,4.4,2.5,7.2c0,2.8-0.8,5.2-2.5,7.2
		c-1.7,2-3.7,3-6,3s-4.4-1-6-3c-1.7-2-2.5-4.4-2.5-7.2c0-2.8,0.8-5.2,2.5-7.2C922.4,632.6,924.4,631.6,926.8,631.6z"/>
	<path d="M970.8,711H953c-5.1,0-9.3-2.1-12.5-6.4c-3.2-4.3-4.8-9.9-4.8-16.7c0-9.1,2.6-17.1,7.9-23.8c5.3-6.7,11.5-10.1,18.6-10.1
		c4.8,0,8.7,1.6,11.8,4.8s4.5,7.4,4.5,12.6c0,3.6-0.8,6.6-2.3,8.9c-1.5,2.3-3.5,3.5-5.8,3.5c-3.8,0-5.6-2.1-5.6-6.3
		c0-0.6,0-1.2,0-1.6c0-0.5,0.1-1,0.1-1.5c0-3.4-1.4-5.1-4.2-5.1c-2.7,0-5.1,1.7-7.3,5.1c-2.2,3.4-3.3,7.1-3.3,11.3
		c0,3.5,0.9,5.9,2.7,7.4s4.8,2.2,9,2.2h11.6c5.2,0,7.8,2.2,7.8,6.5c0,2.9-0.9,5.2-2.8,6.9C976.5,710.1,974,711,970.8,711z"/>
	<path d="M1025.3,695h6.7c5.1,0,7.7,2.1,7.7,6.4c0,3-0.9,5.3-2.8,7c-1.8,1.7-4.4,2.5-7.6,2.5h-7.8c-3.5,0-5.9-1.6-7.2-4.9
		c-3.1,3.3-6,4.9-8.9,4.9h-7c-4.5,0-8.1-1.9-10.9-5.8c-2.8-3.8-4.1-8.8-4.1-15.1c0-9.4,2.7-17.8,8.1-25.2
		c5.4-7.4,11.5-11.1,18.4-11.1c5.2,0,9,2.2,11.5,6.5c2-3.7,4.7-5.5,8-5.5c1.8,0,3.3,0.7,4.5,2.1c1.2,1.4,1.8,3.1,1.8,5.1
		c0,1.4-0.3,3-1,4.9l-0.7,2L1025.3,695z M1003,695.4h1.5c3.3,0,5.6-1.6,6.7-4.9l4.3-12.7c0.6-1.7,0.9-3.1,0.9-4.2
		c0-1.3-0.5-2.5-1.6-3.4c-1.1-1-2.4-1.5-3.9-1.5c-3,0-5.9,2.1-8.7,6.2c-2.8,4.2-4.2,8.4-4.2,12.9
		C997.9,692.9,999.6,695.4,1003,695.4z"/>
	<path d="M1072.7,654.9h1.9c5.2,0,7.8,2.2,7.8,6.5c0,3-0.9,5.3-2.8,7c-1.8,1.7-4.4,2.5-7.6,2.5h-4.5l-8.2,24.1h6.9
		c5.2,0,7.8,2.2,7.8,6.5c0,3-0.9,5.3-2.7,7c-1.8,1.7-4.4,2.5-7.6,2.5h-11c-3.1,0-5.6-0.9-7.4-2.6c-1.8-1.7-2.7-4-2.7-7
		c0-1.8,0.4-3.8,1.1-6l1.2-3.2l7.2-21.3h-0.9c-4.6,0-6.9-2.1-6.9-6.4c0-3,0.9-5.4,2.7-7.1c1.8-1.7,4.4-2.5,7.6-2.5h2.8l3.2-9.6
		l0.7-2c1.9-5.4,4.9-8.1,9.1-8.1c1.7,0,3.1,0.7,4.3,2c1.2,1.3,1.8,3,1.8,4.9c0,1.9-0.5,4.2-1.6,7L1072.7,654.9z"/>
	<path d="M1096.8,695h6.9c5.1,0,7.7,2.2,7.7,6.5c0,3-0.9,5.3-2.7,7c-1.8,1.7-4.4,2.5-7.6,2.5h-9.7c-3.6,0-6.4-0.9-8.5-2.6
		c-2.1-1.8-3.1-4.1-3.1-7.2c0-1.6,0.4-3.7,1.3-6.2l10.1-29.7l0.7-2.1c1.9-5.5,4.9-8.3,9.1-8.3c1.7,0,3.2,0.7,4.4,2.1
		c1.2,1.4,1.9,3,1.9,4.9c0,1.6-0.6,4-1.7,7.2L1096.8,695z M1104.9,631.6c2.4,0,4.4,1,6,3c1.7,2,2.5,4.4,2.5,7.2
		c0,2.8-0.8,5.2-2.5,7.2c-1.7,2-3.7,3-6,3s-4.4-1-6-3c-1.7-2-2.5-4.4-2.5-7.2c0-2.8,0.8-5.2,2.5-7.2
		C1100.5,632.6,1102.5,631.6,1104.9,631.6z"/>
	<path d="M1142.2,653.9c5.9,0,10.8,2.2,14.6,6.7c3.8,4.5,5.7,10.2,5.7,17.1c0,5.2-1,10.4-3,15.6c-2,5.2-4.6,9.3-7.8,12.3
		c-2.1,2-4.3,3.4-6.6,4.1c-2.3,0.8-5.4,1.1-9.5,1.1c-6.7,0-11.2-1-13.5-2.9c-5.5-4.5-8.2-11.1-8.2-19.9c0-9.3,2.8-17.3,8.4-24.1
		C1127.9,657.3,1134.5,653.9,1142.2,653.9z M1140.7,669.5c-3,0-5.8,1.8-8.3,5.3c-2.5,3.6-3.7,7.5-3.7,11.8c0,5.7,2.7,8.5,8,8.5
		c3.1,0,5.5-1.1,7.2-3.4c2.8-3.8,4.2-8.1,4.2-12.9c0-2.8-0.7-5-2-6.7C1144.6,670.4,1142.9,669.5,1140.7,669.5z"/>
	<path d="M1211.2,695h7.4c5.2,0,7.8,2.2,7.8,6.5c0,3-0.9,5.3-2.8,7c-1.8,1.7-4.4,2.5-7.6,2.5h-12.8c-2.5,0-4.6-0.9-6.3-2.7
		c-1.7-1.8-2.5-4.1-2.5-6.8c0-1.7,0.6-4.1,1.7-7.5l5.4-16c0.6-1.7,0.9-3,0.9-4c0-1.2-0.4-2.2-1.2-3c-0.8-0.8-1.9-1.2-3.2-1.2
		c-4.2,0-7.6,3.8-10.2,11.4l-7.2,21.2c-2.2,6.4-5.4,9.7-9.7,9.7c-1.8,0-3.2-0.6-4.5-1.9s-1.8-2.8-1.8-4.7c0-1.4,0.3-3,1-4.9l0.7-2
		l12.4-36.5c1.6-4.7,4.3-7.1,8.2-7.1c3.1,0,5.4,1.7,6.7,5c4.4-4,8.5-6,12.5-6c3.8,0,7,1.3,9.5,4c2.5,2.6,3.7,6,3.7,10
		c0,2.2-0.5,4.7-1.3,7.4L1211.2,695z"/>
</g>
</svg>
